<svg width="512" height="512" viewBox="0 0 512 512" fill="none" xmlns="http://www.w3.org/2000/svg">
<path d="M221.5 19.9186C242.849 7.59292 269.151 7.59292 290.5 19.9186L443.203 108.081C464.551 120.407 477.703 143.186 477.703 167.837V344.163C477.703 368.814 464.551 391.593 443.203 403.919L290.5 492.081C269.151 504.407 242.849 504.407 221.5 492.081L68.7975 403.919C47.4488 391.593 34.2975 368.814 34.2975 344.163V167.837C34.2975 143.186 47.4488 120.407 68.7975 108.081L221.5 19.9186Z" fill="black"/>
<path d="M386 356.091C386 358.719 384.955 361.239 383.094 363.098C381.233 364.956 378.709 366 376.077 366H137.923C135.291 366 132.767 364.956 130.906 363.098C129.045 361.239 128 358.719 128 356.091C128 353.463 129.045 350.942 130.906 349.084C132.767 347.226 135.291 346.182 137.923 346.182H376.077C378.709 346.182 381.233 347.226 383.094 349.084C384.955 350.942 386 353.463 386 356.091ZM386 167.818V306.545C386 311.802 383.909 316.842 380.187 320.559C376.465 324.276 371.417 326.364 366.154 326.364H147.846C142.583 326.364 137.535 324.276 133.813 320.559C130.091 316.842 128 311.802 128 306.545V167.818C128 162.562 130.091 157.521 133.813 153.805C137.535 150.088 142.583 148 147.846 148H366.154C371.417 148 376.465 150.088 380.187 153.805C383.909 157.521 386 162.562 386 167.818ZM301.654 237.182C301.653 235.514 301.231 233.873 300.427 232.412C299.622 230.95 298.462 229.715 297.052 228.821L242.475 194.139C240.975 193.187 239.246 192.656 237.47 192.599C235.694 192.542 233.935 192.963 232.377 193.818C230.819 194.672 229.52 195.929 228.614 197.456C227.709 198.983 227.231 200.725 227.231 202.5V271.864C227.231 273.638 227.709 275.38 228.614 276.908C229.52 278.435 230.819 279.692 232.377 280.546C233.935 281.4 235.694 281.821 237.47 281.765C239.246 281.708 240.975 281.176 242.475 280.224L297.052 245.543C298.462 244.648 299.622 243.413 300.427 241.952C301.231 240.49 301.653 238.85 301.654 237.182Z" fill="white"/>
</svg>
